<svg xmlns="http://www.w3.org/2000/svg" width="82.092" height="84.129" viewBox="0 0 82.092 84.129">
  <g id="Grupo_2950" data-name="Grupo 2950" transform="translate(179.644 -438.66)" style="isolation: isolate">
    <path id="Trazado_3347" data-name="Trazado 3347" d="M-176.462,487.161l3.1,1.1,1.766.57q4.635,1.424,10.262,2.622l66.967,13.669v3.031l-66.978,12.979q-4.415.912-7.724,1.937a75.557,75.557,0,0,0-7.39,2.867v-8.085c1.029.113,3.248.3,4.131.3a32.2,32.2,0,0,0,6.288-.74l57.264-11-57.374-11.57a29.635,29.635,0,0,0-5.628-.512,40.4,40.4,0,0,0-4.682.391Zm0-8.779,3.071.694a40.683,40.683,0,0,0,8.166.856h59.138a43.452,43.452,0,0,0,7.172-.57l4.545-.891V485.8a43.449,43.449,0,0,0-11.733-1.66h-59.25a44.408,44.408,0,0,0-8.164.854l-2.944.638Zm82.092-36.576v9.014c-.368-.039-2.233-.181-2.819-.181a6.721,6.721,0,0,0-1.878.228,26.523,26.523,0,0,0-3.31,1.311l-35.152,15.1h31.291c2.5,0,4.485-.091,5.958-.228a38.4,38.4,0,0,0,5.909-1.211v6.326a52.5,52.5,0,0,0-11.779-1.125h-59.357a43.388,43.388,0,0,0-7.942.626l-3.014.638V465.5l3.027.983a20.714,20.714,0,0,0,3.2.627,45.9,45.9,0,0,0,4.634.171h24.651l-26.859-14.022q-2.2-1.083-3.089-1.424a13.936,13.936,0,0,0-2.538-.627l-3.027-.39v-8.4a88.453,88.453,0,0,0,9.387,6.051l27.849,14.931,34.6-15.216q4.191-1.881,5.957-2.85a28.024,28.024,0,0,0,4.3-3.528" transform="translate(-3.182 -3.147)" fill="#b40f0f" fill-rule="evenodd"/>
  </g>
</svg>
